<?xml version="1.0" encoding="UTF-8"?>
<svg id="Layer_2" xmlns="http://www.w3.org/2000/svg" viewBox="0 0 537.68 335.67">
  <defs>
    <style>
      .cls-1 {
        fill: #9775fa;
      }
    </style>
  </defs>
  <g id="Layer_1-2" data-name="Layer_1">
    <g>
      <path d="M0,204.17C0,131.17,56.5,72.67,124.5,72.67c36,0,63.5,13,82,34.5v-28.5h65v252h-60.5l-1.5-32.5c-19,23.5-47.5,37.5-85,37.5C56.5,335.67,0,277.67,0,204.17ZM208.5,204.17c0-40-31.5-72-71.5-72s-72,32-72,72,31.5,72.5,72,72.5,71.5-32.5,71.5-72.5Z"/>
      <g>
        <polygon class="cls-1" points="459 78.67 459 0 394.5 0 394.5 78.67 315.83 78.67 315.83 143.17 394.5 143.17 394.5 221.85 459 221.85 459 143.17 537.68 143.17 537.68 78.67 459 78.67"/>
        <rect class="cls-1" x="394.5" y="266.17" width="64.5" height="64.5"/>
      </g>
    </g>
  </g>
</svg>