<?xml version="1.0" encoding="UTF-8"?>
<svg id="Layer_2" xmlns="http://www.w3.org/2000/svg" viewBox="0 0 1499.82 390">
  <defs>
    <style>
      .cls-1 {
        fill: #9775fa;
      }
    </style>
  </defs>
  <g id="Layer_1-2" data-name="Layer_1">
    <g>
      <g>
        <path d="M0,258.5C0,185.5,56.5,127,124.5,127c36,0,63.5,13,82,34.5v-28.5h65v252h-60.5l-1.5-32.5c-19,23.5-47.5,37.5-85,37.5C56.5,390,0,332,0,258.5ZM208.5,258.5c0-40-31.5-72-71.5-72s-72,32-72,72,31.5,72.5,72,72.5,71.5-32.5,71.5-72.5Z"/>
        <path d="M339.49,0h64.5v385h-64.5V0Z"/>
        <path d="M533.99,352.5l-1.5,32.5h-60.5V0h65v161.5c19.5-23,49.5-34.5,80.5-34.5,70.5,0,126,58.5,126,131.5s-55.5,131.5-126,131.5c-35,0-64.5-14-83.5-37.5ZM678.49,258.5c0-41.5-31.5-73.5-72-73.5s-72,32-72,73.5,32,74,72,74,72-32.5,72-74Z"/>
        <path d="M1037.99,270.5h-198.5c5,41,34,67,71,67,26.5,0,51-13,64.5-36.5l52,21.5c-20.5,41.5-63,67.5-116,67.5-80,0-135-58-135-131s56-131,133-131c72.5,0,128.5,51.5,129.5,128.5l-.5,14ZM845.99,221h123.5c-10.5-25.5-30.5-41.5-60-41.5s-52.5,16-63.5,41.5Z"/>
        <path d="M1153.99,273.5v111.5h-64.5v-252h64.5v35.5c15-25.5,36-35.5,68-35.5,3,0,6,0,9,.5v63.5c-38.5-7.5-77,3-77,76.5Z"/>
      </g>
      <polygon class="cls-1" points="1499.82 133 1421.14 133 1421.14 54.33 1356.64 54.33 1356.64 133 1277.97 133 1277.97 197.5 1356.64 197.5 1356.64 276.17 1421.14 276.17 1421.14 197.5 1499.82 197.5 1499.82 133"/>
      <rect class="cls-1" x="1356.64" y="320.5" width="64.5" height="64.5"/>
    </g>
  </g>
</svg>